<svg height="64" viewBox="0 0 64 64" width="64" xmlns="http://www.w3.org/2000/svg"><g fill="none" fill-rule="evenodd" transform="matrix(.70710678 .70710678 -.70710678 .70710678 51.738519 5.862165)"><path d="m1.87261215 2.99361448c.07035437-1.65332763 1.47477878-2.99361448 3.12425753-2.99361448h3.00626064c1.65512542 0 3.05403538 1.34339372 3.12425758 2.99361448l1.7452242 41.01277102c.0703544 1.6533276-1.2148764 2.9936145-2.8713977 2.9936145h-7.00242876c-1.65618358 0-2.94161995-1.3433937-2.87139779-2.9936145z" fill="#bd7575"/><path d="m12.3191489 31 .2553192 6h-12.14893618l.25531914-6z" fill="#dfcc00"/><path d="m7 66.183698s7-7.3177048 7-11.183698-3.1340068-7-7-7c-3.86599325 0-7 3.1340068-7 7s7 11.183698 7 11.183698z" fill="#fb3a3a"/></g></svg>